<?xml version="1.0" encoding="UTF-8"?>
<svg width="17px" height="14px" viewBox="0 0 17 14" version="1.1" xmlns="http://www.w3.org/2000/svg" xmlns:xlink="http://www.w3.org/1999/xlink">
    <title>arrow-right</title>
    <defs>
        <path d="M16.7945509,6.37690546 L16.8206241,6.42984545 C16.8263473,6.44253949 16.831761,6.45533904 16.8368652,6.4682327 C16.8776567,6.57112613 16.9,6.68295378 16.9,6.8 C16.9,6.91704622 16.8776567,7.02887387 16.8370025,7.13145044 C16.831761,7.14466096 16.8263473,7.15746051 16.8206241,7.17015455 C16.8125397,7.18800634 16.8038219,7.20572034 16.7945509,7.22309454 L16.7828427,7.24448413 C16.7787422,7.25169644 16.7745341,7.25886416 16.7702183,7.26598496 C16.756593,7.28830291 16.7421424,7.30994896 16.7268073,7.33090694 C16.7000037,7.3676456 16.6697859,7.40300628 16.6363961,7.4363961 L16.6961637,7.37044191 C16.6837759,7.38554209 16.6709065,7.400232 16.6575789,7.41448818 L16.6363961,7.4363961 L11.2363961,12.8363961 C10.8849242,13.187868 10.3150758,13.187868 9.9636039,12.8363961 C9.61213203,12.4849242 9.61213203,11.9150758 9.9636039,11.5636039 L9.9636039,11.5636039 L13.828,7.699 L1.6,7.7 C1.14117882,7.7 0.762548221,7.35666333 0.707012278,6.91289409 L0.7,6.8 C0.7,6.30294373 1.10294373,5.9 1.6,5.9 L1.6,5.9 L13.826,5.899 L9.9636039,2.0363961 C9.64142136,1.71421356 9.61457281,1.208534 9.88305826,0.855768625 L9.9636039,0.763603897 C10.3150758,0.412132034 10.8849242,0.412132034 11.2363961,0.763603897 L11.2363961,0.763603897 L16.6363961,6.1636039 C16.6437184,6.17092623 16.6508882,6.17834334 16.6579054,6.18585128 C16.6709065,6.199768 16.6837759,6.21445791 16.6961637,6.22955809 C16.7070992,6.2428238 16.7172812,6.25596351 16.7270495,6.26931146 C16.7421424,6.29005104 16.756593,6.31169709 16.770104,6.33397624 C16.7745341,6.34113584 16.7787422,6.34830356 16.7828427,6.35551587 L16.7945509,6.37690546 L16.7945509,6.37690546 Z" id="path-1"></path>
    </defs>
    <g id="Page-1" stroke="none" stroke-width="1" fill="none" fill-rule="evenodd">
        <g id="About-Red-Rose-Drylining" transform="translate(-369.000000, -878.000000)">
            <g id="Group-10" transform="translate(129.000000, 844.000000)">
                <g id="arrow-right" transform="translate(240.000000, 34.000000)">
                    <mask id="mask-2" fill="white">
                        <use xlink:href="#path-1"></use>
                    </mask>
                    <use id="Combined-Shape" fill="#D50606" fill-rule="nonzero" xlink:href="#path-1"></use>
                </g>
            </g>
        </g>
    </g>
</svg>