<?xml version="1.0" encoding="UTF-8"?>
<svg width="18px" height="14px" viewBox="0 0 18 14" version="1.1" xmlns="http://www.w3.org/2000/svg" xmlns:xlink="http://www.w3.org/1999/xlink">
    <title>arrow-right</title>
    <defs>
        <path d="M12.1851521,4.85181878 C12.5431327,4.49383818 13.1235339,4.49383818 13.4815145,4.85181878 L13.4815145,4.85181878 L18.9815145,10.3518188 C19.0081022,10.3784065 19.0330642,10.4066198 19.0562387,10.436297 C19.064789,10.4471498 19.0729589,10.4581016 19.0808525,10.4691897 C19.0944023,10.4883378 19.1075778,10.5084555 19.1199635,10.5291012 C19.1285133,10.5432331 19.1362279,10.5569197 19.1435634,10.5707546 C19.153613,10.5897785 19.1633527,10.6098151 19.1723683,10.6302431 C19.1782532,10.6435832 19.1836268,10.6566179 19.1886872,10.6697455 C19.19679,10.6906436 19.2042407,10.7122759 19.2108882,10.7342569 C19.2155356,10.7498679 19.2198254,10.7655876 19.2236894,10.7813901 C19.2283281,10.8000396 19.232267,10.8186469 19.2356323,10.8374531 C19.255087,10.9464414 19.2548082,11.0582393 19.2347272,11.1671027 C19.2316913,11.1839616 19.2282231,11.2002192 19.2243302,11.2163111 C19.2199852,11.2339912 19.2150249,11.2521077 19.2094992,11.2700878 C19.2031094,11.2909937 19.1961684,11.3109633 19.1885701,11.3306057 C19.1836627,11.3432951 19.1782722,11.3563736 19.1725664,11.3693469 C19.16309,11.3907802 19.1530447,11.4113891 19.1422678,11.4315481 C19.1360561,11.4433268 19.1293035,11.4553266 19.1222597,11.4672016 C19.107971,11.4911216 19.0927335,11.5143153 19.0765055,11.5367453 C19.04836,11.5757405 19.0166628,11.613033 18.9815145,11.6481812 L19.0570962,11.5626032 C19.0542964,11.5661997 19.0514705,11.5697748 19.0486186,11.5733282 L18.9815145,11.6481812 L13.4815145,17.1481812 C13.1235339,17.5061618 12.5431327,17.5061618 12.1851521,17.1481812 C11.8271715,16.7902006 11.8271715,16.2097994 12.1851521,15.8518188 L12.1851521,15.8518188 L16.119,11.9163333 L3.66666667,11.9166667 C3.19656715,11.9166667 2.80911844,11.5627965 2.75616709,11.1069027 L2.75,11 C2.75,10.493739 3.16040565,10.0833333 3.66666667,10.0833333 L3.66666667,10.0833333 L16.119,10.0823333 L12.1851521,6.14818122 C11.8570032,5.82003233 11.8296575,5.30498834 12.1031149,4.94569027 Z" id="path-1"></path>
    </defs>
    <g id="Page-1" stroke="none" stroke-width="1" fill="none" fill-rule="evenodd">
        <g id="About-Red-Rose-Drylining" transform="translate(-369.000000, -940.000000)">
            <g id="Group-10" transform="translate(129.000000, 844.000000)">
                <g id="arrow-right" transform="translate(238.000000, 92.000000)">
                    <mask id="mask-2" fill="white">
                        <use xlink:href="#path-1"></use>
                    </mask>
                    <use id="Combined-Shape" fill="#000000" fill-rule="nonzero" xlink:href="#path-1"></use>
                    <g id="Group" mask="url(#mask-2)" fill="#000000">
                        <g id="🎨Color">
                            <rect id="Rectangle" x="0" y="0" width="22" height="22"></rect>
                        </g>
                    </g>
                </g>
            </g>
        </g>
    </g>
</svg>