<?xml version="1.0" encoding="UTF-8"?>
<svg width="37px" height="42px" viewBox="0 0 37 42" version="1.1" xmlns="http://www.w3.org/2000/svg" xmlns:xlink="http://www.w3.org/1999/xlink">
    <title>Group 3</title>
    <defs>
        <polygon id="path-1" points="0 0 37 0 37 42 0 42"></polygon>
    </defs>
    <g id="Page-1" stroke="none" stroke-width="1" fill="none" fill-rule="evenodd">
        <g id="Riverside-Interiors" transform="translate(-885.000000, -703.000000)">
            <g id="Group-3" transform="translate(885.000000, 703.000000)">
                <mask id="mask-2" fill="white">
                    <use xlink:href="#path-1"></use>
                </mask>
                <g id="Clip-2"></g>
                <path d="M18.5000393,19.6876369 C16.3139275,19.6876369 14.5358018,17.9215149 14.5358018,15.7501611 C14.5358018,13.5788072 16.3139275,11.8126852 18.5000393,11.8126852 C20.6861511,11.8126852 22.4642768,13.5788072 22.4642768,15.7501611 C22.4642768,17.9215149 20.6861511,19.6876369 18.5000393,19.6876369 L18.5000393,19.6876369 Z M26.4285143,15.7501611 C26.4285143,11.4008909 22.87887,7.87520938 18.5000393,7.87520938 C14.1212086,7.87520938 10.5715643,11.4008909 10.5715643,15.7501611 C10.5715643,20.0994312 14.1212086,23.6251127 18.5000393,23.6251127 C22.87887,23.6251127 26.4285143,20.0994312 26.4285143,15.7501611 L26.4285143,15.7501611 Z M29.2191723,33.6451684 L27.5574961,33.5885672 L24.3035178,36.6597984 L21.9191941,31.4344398 C22.0794154,31.4557678 22.2379849,31.5000644 22.3990321,31.5000644 C23.3529267,31.5000644 24.2985625,31.133387 25.0112994,30.4254616 C26.3665731,29.0793371 26.4821967,29.1785943 28.5675508,28.6232461 C28.8029274,28.5609028 29.016831,28.4542628 29.2315606,28.3492634 L31.6860843,33.7288398 L29.2191723,33.6451684 Z M14.6415148,27.4920421 C12.8229208,25.6808033 11.8549862,25.4576796 9.61023671,24.8596755 C8.6736856,21.3897749 8.2029324,21.0961048 6.35625843,19.2618973 C7.30684954,15.7403174 7.00787997,15.2112191 6.35625843,12.7986948 C8.91319161,10.2590229 8.93466457,9.70695595 9.61106259,7.20091664 C12.0135557,6.56271743 12.6726102,6.5266239 15.2477128,3.96890522 C18.7676253,4.90569635 19.3102303,4.62022935 21.7548435,3.96890522 C23.513148,5.71533982 23.8732329,6.26412551 27.3906678,7.20091664 C28.3272189,10.6708172 28.7979721,10.9644873 30.6446461,12.7995151 C29.7089208,16.2694157 29.968248,16.7583189 30.6446461,19.2643582 C28.8863415,21.0107928 28.3338259,21.3692672 27.3906678,24.8629567 C25.2210736,25.4404532 24.2291884,25.637327 22.3585638,27.4953234 C19.7867647,26.0040044 16.8234972,26.2279483 14.6415148,27.4920421 L14.6415148,27.4920421 Z M12.6965608,36.6597984 L9.4425825,33.5885672 L5.31399432,33.7296601 L7.76851804,28.3492634 C7.98242168,28.4542628 8.19632533,28.5600825 8.43252782,28.6232461 C10.5087972,29.1761334 10.6450679,29.0908214 11.9887792,30.4254616 C12.7015161,31.133387 13.646326,31.5000644 14.6010465,31.5000644 C14.7620937,31.5000644 14.9206632,31.4549475 15.0808845,31.4344398 L12.6965608,36.6597984 Z M36.8627177,35.5367975 L31.7133384,24.2493667 C32.0800304,23.3117553 32.4004729,23.086991 33.5583606,21.93692 C34.4908649,21.0103827 34.8550792,19.6603207 34.513907,18.3948323 C33.8292502,15.8559807 33.8284243,16.2087129 34.513907,13.6682207 C34.854914,12.4027324 34.4907823,11.0526704 33.5583606,10.1261331 C31.6852584,8.26403512 31.8636491,8.57247072 31.1781663,6.03115819 C30.8371593,4.7655058 29.8418054,3.77687124 28.5675508,3.43816629 C26.0106176,2.7581314 26.3194978,2.93531781 24.4463955,1.07486048 C23.5136435,0.148077101 22.1538274,-0.214088646 20.8794077,0.12494443 C18.3299074,0.803338705 18.6751265,0.80497932 16.1206709,0.12494443 C14.8461686,-0.213924585 13.4865177,0.148159131 12.5536831,1.07486048 C10.6822326,2.9336772 10.9902869,2.75731109 8.43252782,3.43816629 C7.15827323,3.77687124 6.16291926,4.7655058 5.82191225,6.03115819 C5.1372554,8.57083011 5.31564608,8.26403512 3.44254387,10.1244925 C2.51012217,11.0506196 2.14508197,12.401666 2.48699745,13.6665801 C3.1716543,16.2054317 3.17248019,15.8526995 2.48699745,18.3931917 C2.14582526,19.658598 2.51003958,21.0087421 3.44254387,21.9352794 C4.68962691,23.1747639 4.93078469,23.3347239 5.28756607,24.2477261 L0.137360852,35.5367975 C-0.354865304,36.6155018 0.537914016,37.7877212 1.8262912,37.7877212 C1.8502418,37.7877212 1.87501829,37.7869009 1.89896889,37.7860805 L7.91635106,37.5801834 L12.0565016,41.4889484 C12.4256712,41.8359385 12.9055091,42 13.3795659,42 C14.0840439,42 14.7769596,41.639885 15.076755,40.9828187 L18.5000393,33.4794663 L21.9233236,40.9828187 C22.223119,41.639885 22.9160347,42 23.6205127,42 C24.0953954,42 24.5752333,41.8359385 24.9427511,41.4889484 L29.0829017,37.5801834 L35.1002838,37.7860805 C35.1250603,37.7869009 35.1490109,37.7877212 35.1729615,37.7877212 C36.4613387,37.7869009 37.3549439,36.6155018 36.8627177,35.5367975 L36.8627177,35.5367975 Z" id="Fill-1" fill="#ED3339" mask="url(#mask-2)"></path>
            </g>
        </g>
    </g>
</svg>