<?xml version="1.0" encoding="UTF-8"?>
<svg width="46px" height="41px" viewBox="0 0 46 41" version="1.1" xmlns="http://www.w3.org/2000/svg" xmlns:xlink="http://www.w3.org/1999/xlink">
    <title>Group 3</title>
    <defs>
        <polygon id="path-1" points="0 0 45.9 0 45.9 40.5 0 40.5"></polygon>
    </defs>
    <g id="Page-1" stroke="none" stroke-width="1" fill="none" fill-rule="evenodd">
        <g id="Riverside-Interiors" transform="translate(-568.000000, -703.000000)">
            <g id="Group-13" transform="translate(546.000000, 688.000000)">
                <g id="Group-3" transform="translate(22.000000, 15.000000)">
                    <mask id="mask-2" fill="white">
                        <use xlink:href="#path-1"></use>
                    </mask>
                    <g id="Clip-2"></g>
                    <path d="M36.9584541,36.7029396 L8.90177011,36.7029396 L8.90177011,15.3840275 L22.5277087,4.30926803 C22.7587918,4.11941501 23.1015121,4.11941501 23.3325156,4.30926803 L36.9584541,15.3840275 L36.9584541,36.7029396 Z M45.6599307,17.7176376 L40.791327,13.5883344 L40.791327,5.69361297 C40.791327,5.3455491 40.5043855,5.06076957 40.1538562,5.06076957 L37.603973,5.06076957 C37.2532844,5.06076957 36.9665022,5.3455491 36.9665022,5.69361297 L36.9665022,10.4794912 L24.9580661,0.717881733 C23.7867135,-0.239293911 22.0894475,-0.239293911 20.9180949,0.717881733 L0.232167102,17.7413692 C-0.0387579919,17.9628644 -0.0785999175,18.3583915 0.144514866,18.6352605 L1.76209705,20.5970751 C1.98521183,20.8660335 2.38363108,20.9055862 2.66252456,20.684091 L5.07694525,18.4928707 L5.07694525,39.2343132 C5.07694525,39.9304409 5.65863737,40.5 6.35985526,40.5 L39.5242741,40.5 C40.225492,40.5 40.7992157,39.9304409 40.7992157,39.2343132 L40.7992157,18.4928707 L43.2534784,20.6524489 C43.5244035,20.873944 43.9307911,20.8343913 44.1539059,20.5654329 L45.7715677,18.6036183 C45.9786661,18.3346599 45.9309354,17.9391328 45.6599307,17.7176376 L45.6599307,17.7176376 Z M28.535871,19.3788515 C29.9941652,20.5970751 29.0060058,22.2345574 28.6952387,22.5588896 L22.9261279,28.3810489 L17.1649855,22.5588896 C16.8462501,22.2345574 15.8581703,20.5970751 17.3243532,19.3788515 C18.4080536,18.4691391 19.8184577,19.2918355 20.2009402,19.6794521 L22.9340963,22.4402315 L25.6672524,19.6794521 C26.0337981,19.2918355 27.444282,18.4691391 28.535871,19.3788515 L28.535871,19.3788515 Z M18.4319587,15.1704429 C17.2127958,15.1704429 15.9617593,15.5501489 14.8541538,16.4756824 C11.8500726,18.9833244 12.2963022,23.0651643 14.4318294,25.2247424 L21.4280715,32.2967674 C22.4400564,33.3172274 23.8424922,32.8900581 24.4321527,32.2967674 L31.4284745,25.2247424 C33.5639221,23.0651643 34.0101516,18.9833244 31.0060704,16.4756824 C29.8984649,15.5501489 28.6395397,15.1704429 27.4282655,15.1704429 C25.659284,15.1704429 23.9780344,15.9614971 22.9340963,17.0135993 C21.8822695,15.9614971 20.2009402,15.1704429 18.4319587,15.1704429 L18.4319587,15.1704429 Z" id="Fill-1" fill="#ED3339" mask="url(#mask-2)"></path>
                </g>
            </g>
        </g>
    </g>
</svg>