<?xml version="1.0" encoding="UTF-8"?>
<svg width="39px" height="39px" viewBox="0 0 39 39" version="1.1" xmlns="http://www.w3.org/2000/svg" xmlns:xlink="http://www.w3.org/1999/xlink">
    <title>Path</title>
    <g id="Page-1" stroke="none" stroke-width="1" fill="none" fill-rule="evenodd">
        <g id="About-Red-Rose-Drylining" transform="translate(-209.000000, -774.000000)" fill="#ED3339">
            <g id="Group-14" transform="translate(209.000000, 688.000000)">
                <g id="Group-10" transform="translate(0.000000, 86.000000)">
                    <path d="M26.5,18 C27.8828125,18 29,16.8828125 29,15.5 C29,14.1171875 27.8828125,13 26.5,13 C25.1171875,13 24,14.1171875 24,15.5 C24,16.8828125 25.1171875,18 26.5,18 M12.5,18 C13.8828125,18 15,16.8828125 15,15.5 C15,14.1171875 13.8828125,13 12.5,13 C11.1171875,13 10,14.1171875 10,15.5 C10,16.8828125 11.1171875,18 12.5,18 M27.6244671,23.0540382 C25.6319894,23.7460789 22.6701983,24.1462953 19.5006972,24.1462953 C16.331196,24.1462953 13.3770979,23.7460789 11.3769273,23.0540382 C10.6153238,22.7955651 9.88449227,23.5042816 10.0152727,24.3297278 C10.6230168,28.2568505 15.5003559,31 19.5006972,31 C23.5010384,31 28.3706846,28.2568505 28.9861217,24.3297278 C29.1092091,23.5126194 28.3937635,22.7955651 27.6244671,23.0540382 M19.5,35 C10.95175,35 4,28.04825 4,19.5 C4,10.95175 10.95175,4 19.5,4 C28.04825,4 35,10.95175 35,19.5 C35,28.04825 28.04825,35 19.5,35 M19.5,0 C8.72782258,0 0,8.72782258 0,19.5 C0,30.2721774 8.72782258,39 19.5,39 C30.2721774,39 39,30.2721774 39,19.5 C39,8.72782258 30.2721774,0 19.5,0" id="Fill-1"></path>
                </g>
            </g>
        </g>
    </g>
</svg>