<?xml version="1.0" encoding="UTF-8"?>
<svg width="22px" height="20px" viewBox="0 0 22 20" version="1.1" xmlns="http://www.w3.org/2000/svg" xmlns:xlink="http://www.w3.org/1999/xlink">
    <title>log-in</title>
    <defs>
        <path d="M17,-1.13686838e-13 C18.6568542,-1.13686838e-13 20,1.34314575 20,3 L20,3 L20,19 C20,20.6568542 18.6568542,22 17,22 L17,22 L12,22 C11.4477153,22 11,21.5522847 11,21 C11,20.4477153 11.4477153,20 12,20 L12,20 L17,20 C17.5522847,20 18,19.5522847 18,19 L18,19 L18,3 C18,2.44771525 17.5522847,2 17,2 L17,2 L12,2 C11.4477153,2 11,1.55228475 11,1 C11,0.44771525 11.4477153,-1.13686838e-13 12,-1.13686838e-13 L12,-1.13686838e-13 Z M8.29289322,6.29289322 C8.68341751,5.90236893 9.31658249,5.90236893 9.70710678,6.29289322 L9.70710678,6.29289322 L13.7071068,10.2928932 C13.7355731,10.3213595 13.7623312,10.3515341 13.787214,10.3832499 C13.7927155,10.3901576 13.7982466,10.397397 13.8036654,10.4046934 C13.8215099,10.4288693 13.8382813,10.453725 13.8539326,10.4793398 C13.8613931,10.4913869 13.8685012,10.5036056 13.8753288,10.5159379 C13.8862061,10.5357061 13.8966234,10.5561086 13.9063462,10.5769009 C13.914321,10.5939015 13.9218036,10.6112044 13.9287745,10.628664 C13.9366843,10.6484208 13.9438775,10.6682023 13.9504533,10.6882636 C13.9552713,10.7031487 13.9599023,10.7185367 13.9641549,10.734007 C13.9701664,10.7555635 13.9753602,10.7772539 13.9798348,10.7992059 C13.9832978,10.8166247 13.9863719,10.834051 13.9889822,10.8515331 C13.9962388,10.8996379 14,10.9493797 14,11 L13.9962979,10.9137692 C13.9978436,10.9317345 13.9989053,10.9497336 13.9994829,10.9677454 L14,11 C14,11.0112225 13.9998151,11.0224019 13.9994483,11.0335352 C13.9988772,11.050591 13.997855,11.0679231 13.996384,11.0852242 C13.994564,11.1070574 13.9920941,11.1281144 13.9889807,11.1489612 C13.9863719,11.165949 13.9832978,11.1833753 13.9797599,11.2007258 C13.9753602,11.2227461 13.9701664,11.2444365 13.964279,11.2658396 C13.9599023,11.2814633 13.9552713,11.2968513 13.9502619,11.3121425 C13.9438775,11.3317977 13.9366843,11.3515792 13.928896,11.3710585 C13.9218036,11.3887956 13.914321,11.4060985 13.9063266,11.4232215 C13.8966234,11.4438914 13.8862061,11.4642939 13.8751242,11.484277 C13.8685012,11.4963944 13.8613931,11.5086131 13.8540045,11.5207088 C13.8382813,11.546275 13.8215099,11.5711307 13.8036865,11.5951593 C13.774687,11.6343256 13.7425008,11.6717127 13.7071068,11.7071068 L13.787214,11.6167501 C13.7849289,11.6196628 13.7826279,11.6225624 13.7803112,11.625449 L13.7071068,11.7071068 L9.70710678,15.7071068 C9.31658249,16.0976311 8.68341751,16.0976311 8.29289322,15.7071068 C7.90236893,15.3165825 7.90236893,14.6834175 8.29289322,14.2928932 L8.29289322,14.2928932 L10.585,12 L1,12 C0.487164161,12 0.0644928393,11.6139598 0.00672773133,11.1166211 L0,11 C0,10.4477153 0.44771525,10 1,10 L1,10 L10.585,10 L8.29289322,7.70710678 C7.93240926,7.34662282 7.90467972,6.77939176 8.20970461,6.38710056 Z" id="path-1"></path>
    </defs>
    <g id="careers" stroke="none" stroke-width="1" fill="none" fill-rule="evenodd">
        <g transform="translate(-577.000000, -2927.000000)" id="Group-29">
            <g transform="translate(577.000000, 2916.000000)">
                <g id="log-in" transform="translate(11.000000, 21.000000) rotate(90.000000) translate(-11.000000, -21.000000) translate(1.000000, 10.000000)">
                    <mask id="mask-2" fill="white">
                        <use xlink:href="#path-1"></use>
                    </mask>
                    <use id="Combined-Shape" fill="#D81B1B" fill-rule="nonzero" xlink:href="#path-1"></use>
                </g>
            </g>
        </g>
    </g>
</svg>