<?xml version="1.0" encoding="UTF-8"?>
<svg width="37px" height="42px" viewBox="0 0 37 42" version="1.1" xmlns="http://www.w3.org/2000/svg" xmlns:xlink="http://www.w3.org/1999/xlink">
    <title>Fill 1</title>
    <g id="Page-1" stroke="none" stroke-width="1" fill="none" fill-rule="evenodd">
        <g id="About-Red-Rose-Drylining" transform="translate(-887.000000, -702.000000)" fill="#ED3339">
            <g id="Group-14" transform="translate(226.000000, 681.000000)">
                <path d="M668,59 L677.342561,59 L677.342561,53.5108434 C677.342561,52.9701205 677.791003,52.5277108 678.3391,52.5277108 L681.6609,52.5277108 C682.208997,52.5277108 682.657439,52.9701205 682.657439,53.5108434 L682.657439,59 L692,59 L692,25.0819277 L668.041522,25 L668,59 Z M698,60.046875 L698,63 L661,63 L661,60.046875 C661,59.5054687 661.445982,59.0625 661.991071,59.0625 L663.601562,59.0625 L663.601562,22.96875 C663.601562,21.8777344 664.485268,21 665.583705,21 L693.416295,21 C694.514732,21 695.398438,21.8777344 695.398438,22.96875 L695.398438,59.0625 L697.008929,59.0625 C697.554018,59.0625 698,59.5054687 698,60.046875 L698,60.046875 Z M682.9375,50 L686.0625,50 C686.578125,50 687,49.578125 687,49.0625 L687,45.9375 C687,45.421875 686.578125,45 686.0625,45 L682.9375,45 C682.421875,45 682,45.421875 682,45.9375 L682,49.0625 C682,49.578125 682.421875,50 682.9375,50 L682.9375,50 Z M677,49.0625 L677,45.9375 C677,45.421875 676.578125,45 676.0625,45 L672.9375,45 C672.421875,45 672,45.421875 672,45.9375 L672,49.0625 C672,49.578125 672.421875,50 672.9375,50 L676.0625,50 C676.578125,50 677,49.578125 677,49.0625 L677,49.0625 Z M682.9375,42 L686.0625,42 C686.578125,42 687,41.578125 687,41.0625 L687,37.9375 C687,37.421875 686.578125,37 686.0625,37 L682.9375,37 C682.421875,37 682,37.421875 682,37.9375 L682,41.0625 C682,41.578125 682.421875,42 682.9375,42 L682.9375,42 Z M672.9375,42 L676.0625,42 C676.578125,42 677,41.578125 677,41.0625 L677,37.9375 C677,37.421875 676.578125,37 676.0625,37 L672.9375,37 C672.421875,37 672,37.421875 672,37.9375 L672,41.0625 C672,41.578125 672.421875,42 672.9375,42 L672.9375,42 Z M682.9375,34 L686.0625,34 C686.578125,34 687,33.578125 687,33.0625 L687,29.9375 C687,29.421875 686.578125,29 686.0625,29 L682.9375,29 C682.421875,29 682,29.421875 682,29.9375 L682,33.0625 C682,33.578125 682.421875,34 682.9375,34 L682.9375,34 Z M672,33.0625 L672,29.9375 C672,29.421875 672.421875,29 672.9375,29 L676.0625,29 C676.578125,29 677,29.421875 677,29.9375 L677,33.0625 C677,33.578125 676.578125,34 676.0625,34 L672.9375,34 C672.421875,34 672,33.578125 672,33.0625 L672,33.0625 Z" id="Fill-1"></path>
            </g>
        </g>
    </g>
</svg>