<?xml version="1.0" encoding="UTF-8"?>
<svg width="23px" height="23px" viewBox="0 0 23 23" version="1.1" xmlns="http://www.w3.org/2000/svg" xmlns:xlink="http://www.w3.org/1999/xlink">
    <title>Fill 1</title>
    <g id="Page-1" stroke="none" stroke-width="1" fill="none" fill-rule="evenodd">
        <g id="About-mobile" transform="translate(-315.000000, -855.000000)" fill="#D91F1F">
            <path d="M335.774194,866.5 C335.774194,861.376008 331.623992,857.225806 326.5,857.225806 C321.376008,857.225806 317.225806,861.376008 317.225806,866.5 C317.225806,871.623992 321.376008,875.774194 326.5,875.774194 C331.623992,875.774194 335.774194,871.623992 335.774194,866.5 L335.774194,866.5 Z M338,866.5 C338,872.852823 332.852823,878 326.5,878 C320.147177,878 315,872.852823 315,866.5 C315,860.147177 320.147177,855 326.5,855 C332.852823,855 338,860.147177 338,866.5 L338,866.5 Z M321.120968,867.798387 C320.814919,867.798387 320.564516,867.547984 320.564516,867.241935 L320.564516,865.758065 C320.564516,865.452016 320.814919,865.201613 321.120968,865.201613 L331.879032,865.201613 C332.185081,865.201613 332.435484,865.452016 332.435484,865.758065 L332.435484,867.241935 C332.435484,867.547984 332.185081,867.798387 331.879032,867.798387 L321.120968,867.798387 Z" id="Fill-1"></path>
        </g>
    </g>
</svg>