<?xml version="1.0" encoding="UTF-8"?>
<svg width="41px" height="41px" viewBox="0 0 41 41" version="1.1" xmlns="http://www.w3.org/2000/svg" xmlns:xlink="http://www.w3.org/1999/xlink">
    <title>Fill 1</title>
    <g id="Page-1" stroke="none" stroke-width="1" fill="none" fill-rule="evenodd">
        <g id="Services" transform="translate(-883.000000, -728.000000)" fill="#ED3339">
            <path d="M900,765 L903,765 L903,757 L900,757 L900,765 Z M887,740 L912,740 L912,732 L887,732 L887,740 Z M919.515625,733.765625 L916.3125,733.765625 L916.3125,731.84375 C916.3125,729.720879 914.591621,728 912.46875,728 L886.84375,728 C884.720879,728 883,729.720879 883,731.84375 L883,739.53125 C883,741.654121 884.720879,743.375 886.84375,743.375 L912.46875,743.375 C914.591621,743.375 916.3125,741.654121 916.3125,739.53125 L916.3125,737.609375 L919.515625,737.609375 C919.86877,737.609375 920.15625,737.896855 920.15625,738.25 L920.15625,745.9375 C920.15625,746.290645 919.86877,746.578125 919.515625,746.578125 L903.5,746.578125 C901.027187,746.578125 899.015625,748.589687 899.015625,751.0625 L899.015625,753.625 L898.375,753.625 C896.96002,753.625 895.8125,754.77252 895.8125,756.1875 L895.8125,766.4375 C895.8125,767.85248 896.96002,769 898.375,769 L903.5,769 C904.91498,769 906.0625,767.85248 906.0625,766.4375 L906.0625,756.1875 C906.0625,754.77252 904.91498,753.625 903.5,753.625 L902.859375,753.625 L902.859375,751.0625 C902.859375,750.709355 903.146855,750.421875 903.5,750.421875 L919.515625,750.421875 C921.988438,750.421875 924,748.410313 924,745.9375 L924,738.25 C924,735.777187 921.988438,733.765625 919.515625,733.765625 L919.515625,733.765625 Z" id="Fill-1"></path>
        </g>
    </g>
</svg>