<?xml version="1.0" encoding="UTF-8"?>
<svg width="45px" height="27px" viewBox="0 0 45 27" version="1.1" xmlns="http://www.w3.org/2000/svg" xmlns:xlink="http://www.w3.org/1999/xlink">
    <title>Group 3</title>
    <defs>
        <polygon id="path-1" points="0 0 45 0 45 27 0 27"></polygon>
    </defs>
    <g id="Page-1" stroke="none" stroke-width="1" fill="none" fill-rule="evenodd">
        <g id="Services" transform="translate(-239.000000, -735.000000)">
            <g id="Group-14" transform="translate(226.000000, 711.000000)">
                <g id="Group-3" transform="translate(13.000000, 24.000000)">
                    <mask id="mask-2" fill="white">
                        <use xlink:href="#path-1"></use>
                    </mask>
                    <g id="Clip-2"></g>
                    <path d="M41.625,20.221875 C41.00625,20.221875 40.5,19.7156953 40.5,19.096875 C40.5,18.478125 41.00625,17.971875 41.625,17.971875 C42.24375,17.971875 42.75,18.478125 42.75,19.096875 C42.75,19.7226562 42.24375,20.221875 41.625,20.221875 L41.625,20.221875 Z M38.25,16.8680391 L33.384375,16.8680391 C33.2226563,16.6710938 33.0398438,16.4882812 32.8429688,16.3266328 L25.621875,10.4625 L26.5007813,9.6609375 C26.9578125,9.2390625 26.9929688,8.52890625 26.5710938,8.071875 L25.8046875,7.24921875 C25.3828125,6.7921875 24.6726563,6.76413281 24.215625,7.17890625 L20.334375,10.7367891 C19.6664063,11.3484375 18.5273438,11.3976563 17.9015625,10.7367891 C17.2476563,10.040625 17.3039063,8.971875 17.9859375,8.353125 L22.5984375,4.12741406 C23.11875,3.64921875 23.79375,3.38913281 24.496875,3.38913281 L30.3820313,3.375 C30.5296875,3.375 30.6703125,3.43125 30.76875,3.53671875 L35.1070313,7.86796875 L38.25,7.86796875 L38.25,16.8680391 Z M30.796875,19.7367891 L28.9617188,22.0008516 C28.7648438,22.2398438 28.4132813,22.2821016 28.1671875,22.0851563 L26.4867188,20.7211641 L24.3773438,23.2875703 C23.9554688,23.8007813 23.3226563,23.625 23.1117188,23.45625 L20.5242187,21.2414063 L19.4273437,22.5914063 C18.45,23.7938203 16.6710937,23.9765625 15.5390625,23.0555391 L8.69765625,16.8680391 L6.75,16.8680391 L6.75,7.8609375 L9.69609375,7.8609375 L14.034375,3.52975781 C14.175,3.4734375 14.2945312,3.42428906 14.4351562,3.36796875 L18.421875,3.36796875 L15.7007812,5.8640625 C13.6335937,7.75546875 13.5140625,10.9477266 15.3914062,12.9867891 C16.4320313,14.1258516 19.6945313,15.8836641 22.528125,13.2960938 L23.1046875,12.76875 L30.7125,18.9422578 C30.9515625,19.1391328 30.9867188,19.4976563 30.796875,19.7367891 L30.796875,19.7367891 Z M3.375,20.221875 C2.75625,20.221875 2.25,19.7156953 2.25,19.096875 C2.25,18.478125 2.75625,17.971875 3.375,17.971875 C3.99375,17.971875 4.5,18.478125 4.5,19.096875 C4.5,19.7226562 3.99375,20.221875 3.375,20.221875 L3.375,20.221875 Z M36.50625,4.49296875 L33.159375,1.14609375 C32.4186328,0.411960938 31.4179453,0 30.375,0 L14.428125,0 C13.3875,0 12.3820312,0.41484375 11.64375,1.14609375 L8.296875,4.49296875 L0,4.49296875 L0,22.471875 L4.5,22.471875 C5.7375,22.471875 6.7359375,21.4735078 6.74296875,20.2430391 L7.3828125,20.2430391 L13.33125,25.6148438 C15.5039062,27.3797578 18.5203125,27.421875 20.75625,25.8820313 C21.6351563,26.6414766 22.584375,27 23.6460937,27 C24.9257813,27 26.128125,26.4796875 27.0773438,25.3125 C28.63125,25.9242891 30.4664062,25.4953125 31.5773438,24.1313203 L33.4195312,21.8602266 C33.8132812,21.375 34.059375,20.8195313 34.1859375,20.2430391 L38.2570313,20.2430391 C38.2640625,21.4735078 39.2695312,22.471875 40.5,22.471875 L45,22.471875 L45,4.49296875 L36.50625,4.49296875 Z" id="Fill-1" fill="#ED3339" mask="url(#mask-2)"></path>
                </g>
            </g>
        </g>
    </g>
</svg>