<?xml version="1.0" encoding="UTF-8"?>
<svg width="20px" height="18px" viewBox="0 0 20 18" version="1.1" xmlns="http://www.w3.org/2000/svg" xmlns:xlink="http://www.w3.org/1999/xlink">
    <title>arrow-right</title>
    <defs>
        <filter x="-73.5%" y="-73.8%" width="247.0%" height="247.6%" filterUnits="objectBoundingBox" id="filter-1">
            <feOffset dx="0" dy="2" in="SourceAlpha" result="shadowOffsetOuter1"></feOffset>
            <feGaussianBlur stdDeviation="2" in="shadowOffsetOuter1" result="shadowBlurOuter1"></feGaussianBlur>
            <feColorMatrix values="0 0 0 0 0   0 0 0 0 0   0 0 0 0 0  0 0 0 0.5 0" type="matrix" in="shadowBlurOuter1" result="shadowMatrixOuter1"></feColorMatrix>
            <feMerge>
                <feMergeNode in="shadowMatrixOuter1"></feMergeNode>
                <feMergeNode in="SourceGraphic"></feMergeNode>
            </feMerge>
        </filter>
        <path d="M14.2593075,7.93264752 C14.2780443,7.99458448 14.2881144,8.06025998 14.2881144,8.128277 C14.2881144,8.23317072 14.2641649,8.33249566 14.2214128,8.42112787 C14.2152471,8.43396887 14.2089302,8.44610193 14.2022203,8.45807535 C14.1918839,8.47640999 14.1806428,8.4944127 14.1686045,8.51182691 C14.1455114,8.54533461 14.1188703,8.57733759 14.0888338,8.60724032 L14.1461534,8.54243901 C14.1327115,8.5597333 14.1184475,8.57636229 14.1034199,8.59226792 L14.0888338,8.60724032 L10.0065154,12.6713788 C9.74080801,12.935903 9.31001117,12.935903 9.04430375,12.6713788 C8.77859634,12.4068547 8.77859634,11.9779763 9.04430375,11.7134522 L9.04430375,11.7134522 L11.9651592,8.80478209 L2.7215456,8.80563342 C2.3799392,8.80563342 2.09713253,8.55500301 2.04853633,8.22837177 L2.0411592,8.128277 C2.0411592,7.75418339 2.34577856,7.45092059 2.7215456,7.45092059 L2.7215456,7.45092059 L11.9651592,7.45078209 L9.04430375,4.54310182 C8.80516708,4.3050301 8.78125341,3.93383145 8.97256275,3.66913435 L9.04430375,3.58517519 C9.31001117,3.32065105 9.74080801,3.32065105 10.0065154,3.58517519 L10.0065154,3.58517519 L14.0888338,7.64931369 C14.0938949,7.65435224 14.0988596,7.65945043 14.1037279,7.66460597 C14.1184475,7.68019172 14.1327115,7.69682071 14.1461534,7.71411499 C14.154264,7.72448932 14.1616684,7.73459298 14.168757,7.7448478 C14.1806428,7.76214131 14.1918839,7.78014402 14.2022756,7.79868303 C14.2089302,7.81045208 14.2152471,7.82258514 14.2211707,7.83485914 C14.2310525,7.8554107 14.2397362,7.87593889 14.2474049,7.89695195 C14.250403,7.90523347 14.2534097,7.91403656 14.2562295,7.92288592 Z" id="path-2"></path>
    </defs>
    <g id="nav-2" stroke="none" stroke-width="1" fill="none" fill-rule="evenodd">
        <g id="Homepage-Copy" transform="translate(-1129.000000, -2376.000000)">
            <g id="Group-9" transform="translate(1026.000000, 2375.000000)">
                <g id="arrow-right" transform="translate(104.851125, 0.000000)" filter="url(#filter-1)">
                    <mask id="mask-3" fill="white">
                        <use xlink:href="#path-2"></use>
                    </mask>
                    <use id="Combined-Shape" fill="#000000" fill-rule="nonzero" xlink:href="#path-2"></use>
                    <g id="Group" mask="url(#mask-3)" fill="#000000">
                        <g id="🎨Color">
                            <rect id="Rectangle" x="0" y="0" width="16.3292736" height="16.256554"></rect>
                        </g>
                    </g>
                </g>
            </g>
        </g>
    </g>
</svg>