<?xml version="1.0" encoding="UTF-8"?>
<svg width="38px" height="41px" viewBox="0 0 38 41" version="1.1" xmlns="http://www.w3.org/2000/svg" xmlns:xlink="http://www.w3.org/1999/xlink">
    <title>Fill 1</title>
    <g id="Page-1" stroke="none" stroke-width="1" fill="none" fill-rule="evenodd">
        <g id="About-Red-Rose-Drylining" transform="translate(-571.000000, -703.000000)" fill="#ED3339">
            <g id="Group-14" transform="translate(226.000000, 681.000000)">
                <path d="M352,57 C352,58.1045833 351.104583,59 350,59 C348.895417,59 348,58.1045833 348,57 C348,55.8954167 348.895417,55 350,55 C351.104583,55 352,55.8954167 352,57 M376.830493,49.2052694 C377.82207,50.8814875 376.929966,53.1249068 375.729968,53.7722301 C376.337862,57.6418904 374.339865,59 371.53629,59 L368.550505,59 C362.894804,59 359.232441,55.9997836 355,55.9997836 L355,41.2311354 L355.862104,41.2311354 C358.101048,41.2311354 361.228938,35.6075146 363.325777,33.4997476 C365.564721,31.249982 364.818669,27.5001082 366.311562,26 C370.043398,26 370.043398,28.6162648 370.043398,30.5003245 C370.043398,33.6076348 367.804454,34.9998558 367.804454,38.0000721 L376.014178,38.0000721 C377.680755,38.0000721 378.992858,39.5001803 379,41.0002885 C379.007068,42.4996034 377.987859,43.9997115 377.241808,43.9997115 C378.306727,45.1543427 378.534253,47.5882305 376.830493,49.2052694 M381.913042,44.9575977 C382.607333,43.7684375 383,42.5 383,40.9665039 C383,37.4418652 380.053575,34.113418 376.205917,34.113418 L373.317917,34.113418 C373.707417,33.0876172 374.018542,31.8608203 374.018542,30.386582 C374.018542,24.557375 371.03475,22 366.476333,22 C361.599112,22 361.877304,29.6020566 360.795333,30.6964844 C358.994529,32.5180215 356.867479,36.0174355 355.351833,37.375 L347.533333,37.375 C346.134221,37.375 345,38.5222793 345,39.9375 L345,59.15625 C345,60.5714707 346.134221,61.71875 347.533333,61.71875 L352.6,61.71875 C353.779029,61.71875 354.7698,60.9040352 355.052425,59.8008789 C358.576054,59.8810371 360.994675,62.9991992 369.128417,62.9991992 C369.7,62.9991992 370.333333,63 370.8875,63 C376.992596,63 379.753058,59.8430801 379.828583,55.3661523 C380.883004,53.8907129 381.435587,51.9130234 381.201333,50.0017188 C381.981442,48.5241172 382.283067,46.771127 381.913042,44.9575977" id="Fill-1"></path>
            </g>
        </g>
    </g>
</svg>