<?xml version="1.0" encoding="UTF-8"?>
<svg width="23px" height="23px" viewBox="0 0 23 23" version="1.1" xmlns="http://www.w3.org/2000/svg" xmlns:xlink="http://www.w3.org/1999/xlink">
    <title>Fill 1</title>
    <g id="nav-2" stroke="none" stroke-width="1" fill="none" fill-rule="evenodd">
        <g id="form-mobile" transform="translate(-303.000000, -1415.000000)" fill="#FFFFFF">
            <g id="Group-8" transform="translate(4.000000, 1216.000000)">
                <g id="Group-17" transform="translate(17.000000, 131.000000)">
                    <path d="M302.774194,79.5 C302.774194,74.3760081 298.623992,70.2258065 293.5,70.2258065 C288.376008,70.2258065 284.225806,74.3760081 284.225806,79.5 C284.225806,84.6239919 288.376008,88.7741935 293.5,88.7741935 C298.623992,88.7741935 302.774194,84.6239919 302.774194,79.5 M305,79.5 C305,85.8528226 299.852823,91 293.5,91 C287.147177,91 282,85.8528226 282,79.5 C282,73.1471774 287.147177,68 293.5,68 C299.852823,68 305,73.1471774 305,79.5 M299.435484,78.7580645 L299.435484,80.2419355 C299.435484,80.5479839 299.185081,80.7983871 298.879032,80.7983871 L294.798387,80.7983871 L294.798387,84.8790323 C294.798387,85.1850806 294.547984,85.4354839 294.241935,85.4354839 L292.758065,85.4354839 C292.452016,85.4354839 292.201613,85.1850806 292.201613,84.8790323 L292.201613,80.7983871 L288.120968,80.7983871 C287.814919,80.7983871 287.564516,80.5479839 287.564516,80.2419355 L287.564516,78.7580645 C287.564516,78.4520161 287.814919,78.2016129 288.120968,78.2016129 L292.201613,78.2016129 L292.201613,74.1209677 C292.201613,73.8149194 292.452016,73.5645161 292.758065,73.5645161 L294.241935,73.5645161 C294.547984,73.5645161 294.798387,73.8149194 294.798387,74.1209677 L294.798387,78.2016129 L298.879032,78.2016129 C299.185081,78.2016129 299.435484,78.4520161 299.435484,78.7580645" id="Fill-1"></path>
                </g>
            </g>
        </g>
    </g>
</svg>