<?xml version="1.0" encoding="UTF-8"?>
<svg width="20px" height="20px" viewBox="0 0 20 20" version="1.1" xmlns="http://www.w3.org/2000/svg" xmlns:xlink="http://www.w3.org/1999/xlink">
    <title>x</title>
    <defs>
        <path d="M17.561276,0.418418884 C18.1191679,-0.139472961 19.0236893,-0.139472961 19.5815811,0.418418884 C20.139473,0.976310729 20.139473,1.88083213 19.5815811,2.43872397 L19.5815811,2.43872397 L12.02,10 L19.5815811,17.561276 C20.1046047,18.0842996 20.1372937,18.9119781 19.679648,19.4730836 L19.5815811,19.5815811 C19.0236893,20.139473 18.1191679,20.139473 17.561276,19.5815811 L17.561276,19.5815811 L10,12.02 L2.43872397,19.5815811 C1.91570037,20.1046047 1.08802188,20.1372937 0.526916417,19.679648 L0.418418884,19.5815811 C-0.139472961,19.0236893 -0.139472961,18.1191679 0.418418884,17.561276 L0.418418884,17.561276 L7.98,10 L0.418418884,2.43872397 C-0.104604721,1.91570037 -0.137293696,1.08802188 0.320351958,0.526916417 L0.418418884,0.418418884 C0.976310729,-0.139472961 1.88083213,-0.139472961 2.43872397,0.418418884 L2.43872397,0.418418884 L10,7.98 Z" id="path-1"></path>
    </defs>
    <g id="nav-2" stroke="none" stroke-width="1" fill="none" fill-rule="evenodd">
        <g id="mobile-copy" transform="translate(-22.000000, -25.000000)">
            <g id="x" transform="translate(22.000000, 25.000000)">
                <mask id="mask-2" fill="white">
                    <use xlink:href="#path-1"></use>
                </mask>
                <use id="Combined-Shape" fill="#FFFFFF" fill-rule="nonzero" xlink:href="#path-1"></use>
            </g>
        </g>
    </g>
</svg>