<?xml version="1.0" encoding="UTF-8"?>
<svg width="23px" height="23px" viewBox="0 0 23 23" version="1.1" xmlns="http://www.w3.org/2000/svg" xmlns:xlink="http://www.w3.org/1999/xlink">
    <title>Fill 1</title>
    <g id="nav-2" stroke="none" stroke-width="1" fill="none" fill-rule="evenodd">
        <g id="form-mobile" transform="translate(-303.000000, -1362.000000)" fill="#FFFFFF">
            <g id="Group-8" transform="translate(4.000000, 1216.000000)">
                <g id="Group-17" transform="translate(17.000000, 131.000000)">
                    <path d="M302.774194,26.5 C302.774194,21.3760081 298.623992,17.2258065 293.5,17.2258065 C288.376008,17.2258065 284.225806,21.3760081 284.225806,26.5 C284.225806,31.6239919 288.376008,35.7741935 293.5,35.7741935 C298.623992,35.7741935 302.774194,31.6239919 302.774194,26.5 M305,26.5 C305,32.8528226 299.852823,38 293.5,38 C287.147177,38 282,32.8528226 282,26.5 C282,20.1471774 287.147177,15 293.5,15 C299.852823,15 305,20.1471774 305,26.5 M299.435484,27.2419355 C299.435484,27.5479839 299.185081,27.7983871 298.879032,27.7983871 L294.798387,27.7983871 L294.241935,27.7983871 C294.241935,27.7983871 293.806048,27.7983871 293.5,27.7983871 L293.111288,27.7983871 C293.111288,27.7983871 292.758065,28.1044355 292.758065,27.7983871 L292.201613,27.7983871 L288.120968,27.7983871 C287.814919,27.7983871 287.564516,27.5479839 287.564516,27.2419355 L287.564516,25.7580645 C287.564516,25.4520161 287.814919,25.2016129 288.120968,25.2016129 L292.201613,25.2016129 L292.201613,25.2016129 C292.201613,25.2016129 292.80524,25.2016129 293.111288,25.2016129 L293.5,25.2016129 C293.5,25.2016129 294.241935,25.2016129 294.241935,25.2016129 L294.798387,25.2016129 L298.879032,25.2016129 C299.185081,25.2016129 299.435484,25.4520161 299.435484,25.7580645 L299.435484,27.2419355 Z" id="Fill-1"></path>
                </g>
            </g>
        </g>
    </g>
</svg>