<?xml version="1.0" encoding="UTF-8"?>
<svg width="9px" height="10px" viewBox="0 0 9 10" version="1.1" xmlns="http://www.w3.org/2000/svg" xmlns:xlink="http://www.w3.org/1999/xlink">
    <title>x</title>
    <defs>
        <path d="M7.76927147,0.696693408 C8.00163342,0.439435531 8.37836658,0.439435531 8.61072853,0.696693408 C8.84309049,0.953951285 8.84309049,1.37104871 8.61072853,1.62830659 L8.61072853,1.62830659 L5.461,5.11475 L8.61072853,8.60169341 C8.81727249,8.83036708 8.84022182,9.18533372 8.67957652,9.4420725 L8.61072853,9.53330659 C8.37836658,9.79056447 8.00163342,9.79056447 7.76927147,9.53330659 L7.76927147,9.53330659 L4.62,6.04575 L1.47072853,9.53330659 C1.26160278,9.76483868 0.935536339,9.78799189 0.703022445,9.60276622 L0.629271465,9.53330659 C0.396909512,9.27604871 0.396909512,8.85895129 0.629271465,8.60169341 L0.629271465,8.60169341 L3.778,5.11475 L0.629271465,1.62830659 C0.422727506,1.39963292 0.399778178,1.04466628 0.560423479,0.7879275 L0.629271465,0.696693408 C0.861633419,0.439435531 1.23836658,0.439435531 1.47072853,0.696693408 L1.47072853,0.696693408 L4.62,4.18275 Z" id="path-1"></path>
    </defs>
    <g id="nav-2" stroke="none" stroke-width="1" fill="none" fill-rule="evenodd" opacity="0.7">
        <g id="Form" transform="translate(-576.000000, -823.000000)">
            <g id="Group-24" transform="translate(360.000000, 133.000000)">
                <g id="Group-27" transform="translate(61.000000, 680.000000)">
                    <g id="x" transform="translate(155.000000, 10.000000)">
                        <mask id="mask-2" fill="white">
                            <use xlink:href="#path-1"></use>
                        </mask>
                        <use id="Combined-Shape" fill="#000000" fill-rule="nonzero" xlink:href="#path-1"></use>
                    </g>
                </g>
            </g>
        </g>
    </g>
</svg>