<?xml version="1.0" encoding="UTF-8"?>
<svg width="20px" height="20px" viewBox="0 0 20 20" version="1.1" xmlns="http://www.w3.org/2000/svg" xmlns:xlink="http://www.w3.org/1999/xlink">
    <title>Fill 178</title>
    <g id="careers" stroke="none" stroke-width="1" fill="none" fill-rule="evenodd">
        <g id="careers-mobile" transform="translate(-330.000000, -25.000000)" fill="#000000">
            <path d="M349.403422,27.2339049 L347.551895,25.3834663 C347.041085,24.8721779 346.211822,24.8721779 345.700368,25.3834663 L342.923077,29.0843435 C342.499117,29.7103978 342.412266,30.4234937 342.923077,30.9347821 L344.056639,32.0676116 C343.216439,33.1959278 342.207685,34.4261149 341.072193,35.5608786 C339.78809,36.8439353 338.359879,38.0102919 337.075776,38.9683936 L335.980171,37.8742492 C335.46936,37.3629608 334.755898,37.4493576 334.128644,37.8742492 L330.425589,40.6499071 C329.804768,41.0786673 329.914135,41.9890573 330.425589,42.5003457 L332.277116,44.3501395 C333.300024,45.3727164 334.629804,45.0451823 335.980171,44.3501395 C335.980171,44.3501395 340.067299,42.057401 343.566415,38.5602655 C346.857733,35.2707401 349.403422,30.9347821 349.403422,30.9347821 C349.934176,29.4757081 350.42633,28.255837 349.403422,27.2339049" id="Fill-178"></path>
        </g>
    </g>
</svg>