<?xml version="1.0" encoding="UTF-8"?>
<svg width="23px" height="16px" viewBox="0 0 23 16" version="1.1" xmlns="http://www.w3.org/2000/svg" xmlns:xlink="http://www.w3.org/1999/xlink">
    <title>Group Copy</title>
    <g id="careers" stroke="none" stroke-width="1" fill="none" fill-rule="evenodd">
        <g id="careers-mobile" transform="translate(-21.000000, -27.000000)" fill="#000000">
            <g id="Group-Copy" transform="translate(21.000000, 27.000000)">
                <path d="M21.9306949,1.91369697 L0.879847458,1.91369697 C0.482610169,1.91369697 0.160220339,1.51321212 0.160220339,1.01866667 C0.160220339,0.524606061 0.482610169,0.123636364 0.879847458,0.123636364 L21.9306949,0.123636364 C22.328322,0.123636364 22.6507119,0.524606061 22.6507119,1.01866667 C22.6507119,1.51321212 22.328322,1.91369697 21.9306949,1.91369697" id="Fill-216"></path>
                <path d="M21.9306949,8.87078788 L0.879847458,8.87078788 C0.482610169,8.87078788 0.160220339,8.46981818 0.160220339,7.97575758 C0.160220339,7.48121212 0.482610169,7.08072727 0.879847458,7.08072727 L21.9306949,7.08072727 C22.328322,7.08072727 22.6507119,7.48121212 22.6507119,7.97575758 C22.6507119,8.46981818 22.328322,8.87078788 21.9306949,8.87078788" id="Fill-217"></path>
                <path d="M21.9306949,15.8283636 L0.879847458,15.8283636 C0.482610169,15.8283636 0.160220339,15.4278788 0.160220339,14.9333333 C0.160220339,14.4392727 0.482610169,14.038303 0.879847458,14.038303 L21.9306949,14.038303 C22.328322,14.038303 22.6507119,14.4392727 22.6507119,14.9333333 C22.6507119,15.4278788 22.328322,15.8283636 21.9306949,15.8283636" id="Fill-218"></path>
            </g>
        </g>
    </g>
</svg>